<svg xmlns="http://www.w3.org/2000/svg" viewBox="0 0 32 40" fill="none" x="0px" y="0px"><path fill-rule="evenodd" clip-rule="evenodd" d="M7 4C4.23858 4 2 6.23858 2 9V23C2 25.7614 4.23858 28 7 28H25C27.7614 28 30 25.7614 30 23V9C30 6.23858 27.7614 4 25 4H7ZM8.26299 12.4038C7.87246 12.7943 7.87246 13.4275 8.26299 13.818L11.445 17L8.26299 20.182C7.87246 20.5725 7.87246 21.2057 8.26299 21.5962C8.65351 21.9867 9.28668 21.9867 9.6772 21.5962L13.5663 17.7071C13.9568 17.3166 13.9568 16.6834 13.5663 16.2929L9.6772 12.4038C9.28667 12.0133 8.65351 12.0133 8.26299 12.4038ZM14 21C14 20.4477 14.4477 20 15 20H21C21.5523 20 22 20.4477 22 21C22 21.5523 21.5523 22 21 22H15C14.4477 22 14 21.5523 14 21Z" fill="black"/><text x="0" y="47" fill="#000000" font-size="5px" font-weight="bold" font-family="'Helvetica Neue', Helvetica, Arial-Unicode, Arial, Sans-serif">Created by Braja Omar Justico</text><text x="0" y="52" fill="#000000" font-size="5px" font-weight="bold" font-family="'Helvetica Neue', Helvetica, Arial-Unicode, Arial, Sans-serif">from the Noun Project</text></svg>