<svg xmlns="http://www.w3.org/2000/svg" viewBox="0 0 512 640" x="0px" y="0px"><g><g data-name="Outline"><path d="M180.137,140.856a194.193,194.193,0,0,1,26.162,12.67A6,6,0,0,0,212.25,143.1a206.183,206.183,0,0,0-27.805-13.449,6,6,0,0,0-4.308,11.2Z"/><path d="M298.155,227.5a6,6,0,1,0,8.641-8.326c-6.981-7.247-14.33-14.452-21.669-21.242a6,6,0,1,0-8.15,8.808C284.148,213.375,291.332,220.419,298.155,227.5Z"/><path d="M363.422,290.57a6,6,0,0,0-10.2,6.329,237.781,237.781,0,0,1,13.986,25.681,6,6,0,0,0,10.9-5.016A249.547,249.547,0,0,0,363.422,290.57Z"/><path d="M321.205,12.589C256.757,30.713,189.2,72.764,130.978,130.982S30.714,256.759,12.589,321.206c-18.465,65.655-9.984,120.463,23.88,154.326,22.143,22.144,53.238,33.434,90.471,33.432,19.705,0,41.133-3.163,63.855-9.553C255.243,481.286,322.8,439.241,381.02,381.02S481.286,255.242,499.411,190.794c18.466-65.656,9.982-120.463-23.879-154.326S386.861-5.873,321.205,12.589ZM139.463,139.467h0c3-3,7.629-4.553,13.753-4.613a5.995,5.995,0,0,0,2.805-11.264c52.793-48.545,111.918-83.555,168.431-99.448,43.47-12.391,92.551-14.5,128.047,8.97a92.12,92.12,0,0,0-14.472,5.07c-15.494,6.744-35.216,18.644-58.621,35.369-35.987,25.718-77.879,60.825-121.079,101.312-6.8-5.433-13.619-10.578-20.326-15.3a6,6,0,0,0-6.906,9.815c6.076,4.275,12.252,8.908,18.422,13.8q-16.735,15.9-33.591,32.75-16.827,16.826-32.768,33.61c-14.64-18.455-26.678-36.712-35.233-53.623C134.274,168.924,131.111,147.823,139.463,139.467ZM33.116,452.482c-20.43-31-23.716-75.612-8.975-128.027,15.816-56.241,50.57-115.065,98.749-167.663.73,12.142,5.513,27.11,14.329,44.538,9.114,18.018,21.986,37.452,37.627,57.016-40.48,43.194-75.582,85.08-101.3,121.062C52.743,409.655,40.9,426.756,33.116,452.482Zm154.43,35.377c-21.664,6.093-41.989,9.109-60.579,9.108-26.382,0-49.257-6.083-67.445-18.063a90.48,90.48,0,0,0,13.537-4.693,6,6,0,0,0-4.709-11.037c-9.9,4.223-15.678,5.11-18.783,5.11-2.171-.052-3.538-.265-4.614-1.238-3.89-3.89-.879-25.754,38.36-80.661,25.194-35.254,59.551-76.291,99.213-118.687,9.122,10.821,19.04,21.619,29.6,32.177s21.352,20.473,32.171,29.594q-5.047,4.719-10.06,9.334a6,6,0,0,0,8.125,8.831q5.612-5.163,11.289-10.483c19.565,15.643,39,28.515,57.02,37.63,17.431,8.818,32.4,13.6,44.541,14.326C302.612,437.287,243.787,472.043,187.546,487.859ZM487.859,187.545c-15.823,56.266-50.6,115.119-98.815,167.735a67.255,67.255,0,0,0-.948-7.9,6,6,0,0,0-11.813,2.114,51.141,51.141,0,0,1,.865,8.918c.016,12.642-6.124,18.733-18.668,18.733-20.391,0-55.979-16.6-96.013-48.319q.936-.89,1.875-1.779a6,6,0,1,0-8.278-8.687q-1.482,1.413-2.973,2.82c-10.645-8.915-21.534-18.845-32.482-29.793-10.67-10.671-20.661-21.576-29.8-32.48q16.3-17.178,33.6-34.5c57.28-57.28,114.8-107.39,161.974-141.1,54.877-39.218,77.593-42.947,80.655-38.365,4.21,6.3.836,9.808-3.271,21.979a6,6,0,0,0,11.1,4.562,87.309,87.309,0,0,0,4.037-11.939C499.316,90.549,502.6,135.148,487.859,187.545Z"/><path d="M458.632,90.7a6,6,0,0,0-8.228,2.076c-4.56,7.638-9.975,16-16.1,24.852a6,6,0,0,0,9.871,6.824c6.271-9.071,11.832-17.658,16.528-25.525A6,6,0,0,0,458.632,90.7Z"/><path d="M387.921,187.542a6,6,0,0,0-8.456.7c-6.265,7.4-12.844,15-19.556,22.6a6,6,0,1,0,8.992,7.947c6.767-7.658,13.4-15.325,19.722-22.787A6,6,0,0,0,387.921,187.542Z"/><path d="M118.942,433.391c-8.825,6.137-17.171,11.585-24.8,16.191a6,6,0,0,0,6.2,10.274c7.854-4.739,16.419-10.329,25.456-16.613a6,6,0,1,0-6.852-9.852Z"/><path d="M339.9,233.046q-5.144,5.6-10.44,11.265c-.749-.889-1.486-1.781-2.244-2.668a6,6,0,1,0-9.121,7.8c1.041,1.217,2.057,2.441,3.081,3.663-.565.595-1.129,1.194-1.694,1.789a6,6,0,1,0,8.695,8.269l.645-.681c2.669,3.366,5.271,6.731,7.759,10.073a6,6,0,1,0,9.625-7.166q-4.349-5.841-9.059-11.734c3.911-4.174,7.79-8.351,11.593-12.492a6,6,0,0,0-8.84-8.117Z"/><path d="M298.687,276.394c-3.681,3.744-17.8,17.868-21.14,21.157a6,6,0,1,0,8.42,8.551c3.362-3.311,17.572-17.527,21.276-21.295a6,6,0,1,0-8.556-8.413Z"/><path d="M425.246,140.546a6,6,0,0,0-8.4,1.172c-5.708,7.558-11.885,15.467-18.357,23.507a6,6,0,0,0,9.348,7.525c6.549-8.136,12.8-16.143,18.585-23.8A6,6,0,0,0,425.246,140.546Z"/><path d="M212.049,358.838c-7.576,6.711-15.17,13.3-22.572,19.582a6,6,0,0,0,7.765,9.149c7.466-6.338,15.125-12.982,22.764-19.748a6,6,0,1,0-7.957-8.983Z"/><path d="M166.481,397.472c-8.031,6.484-15.93,12.674-23.479,18.4a6,6,0,1,0,7.25,9.562c7.645-5.8,15.642-12.062,23.768-18.622a6,6,0,0,0-7.539-9.337Z"/></g></g><text x="0" y="527" fill="#000000" font-size="5px" font-weight="bold" font-family="'Helvetica Neue', Helvetica, Arial-Unicode, Arial, Sans-serif">Created by Flowicon</text><text x="0" y="532" fill="#000000" font-size="5px" font-weight="bold" font-family="'Helvetica Neue', Helvetica, Arial-Unicode, Arial, Sans-serif">from the Noun Project</text></svg>