<svg xmlns="http://www.w3.org/2000/svg" xmlns:xlink="http://www.w3.org/1999/xlink" version="1.1" x="0px" y="0px" viewBox="0 0 48 60" style="enable-background:new 0 0 48 48;" xml:space="preserve"><path d="M31.781,40.689C31.924,41.87,32,42.986,32,44h-4c0-2.457-2.491-5.194-4.263-8.358c0.313-0.194,0.604-0.42,0.891-0.651  c0.539,0.841,1.192,1.657,1.958,2.423C28.121,38.949,29.942,40.077,31.781,40.689z M37,35c-1.179,0-2.333-0.305-3.361-0.876  C32.52,34.7,31.284,35,30,35c-1.236,0-2.427-0.298-3.507-0.827C26.921,34.805,27.421,35.421,28,36c3.314,3.314,7.791,4.209,10,2  c0.606-0.606,0.97-1.385,1.123-2.261c-0.598-0.17-1.174-0.422-1.716-0.752C37.269,34.995,37.134,35,37,35z M45.307,26.5  C45.736,27.238,46,28.085,46,29c0,2.761-2.239,5-5,5c-1.17,0-2.233-0.419-3.084-1.092C37.618,32.963,37.314,33,37,33  c-0.513,0-0.997-0.098-1.461-0.244C37.042,31.3,38,29.252,38,27c0-0.553-0.448-1-1-1s-1,0.447-1,1c0,1.917-0.905,3.624-2.308,4.723  C32.673,32.52,31.394,33,30,33c-1.852,0-3.506-0.84-4.607-2.158C24.523,29.801,24,28.46,24,27c0-0.553-0.448-1-1-1s-1,0.447-1,1  c0,2.169,0.874,4.14,2.28,5.582C22.998,34.061,21.111,35,19,35c-3.804,0-7-3.102-7-7c0-1.906,0.729-3.729,2-5  c0.391-0.391,0.391-1.023,0-1.414s-1.023-0.391-1.414,0C10.942,23.229,10,25.567,10,28c0,0.299,0.016,0.605,0.045,0.897  C9.705,28.957,9.358,29,9,29c-3.05,0-5.562-2.277-5.944-5.223C4.179,24.544,5.541,25,7,25c0.552,0,1-0.447,1-1s-0.448-1-1-1  c-1.498,0-2.83-0.673-3.747-1.72C2.483,20.4,2,19.261,2,18c0-1.675,0.831-3.148,2.095-4.056C4.914,13.352,5.915,13,7,13  c0.552,0,1-0.447,1-1s-0.448-1-1-1c-0.975,0-1.926,0.213-2.771,0.575c0.562-1.865,2.174-3.269,4.161-3.513  C9.148,6.263,10.926,5,13,5c0.085,0,0.167,0.012,0.251,0.017C12.468,6.147,12,7.525,12,9c0,0.553,0.448,1,1,1s1-0.447,1-1  c0-1.311,0.516-2.498,1.345-3.391C16.258,4.625,17.552,4,19,4c1.131,0,2.162,0.39,3,1.023C23.209,5.936,24,7.371,24,9  c0,0.553,0.448,1,1,1s1-0.447,1-1c0-1.895-0.769-3.624-1.996-4.885C24.326,4.047,24.656,4,25,4c1.448,0,2.742,0.625,3.655,1.609  C29.357,5.233,30.148,5,31,5c1.252,0,2.392,0.465,3.269,1.225C31.249,7.002,29,9.742,29,13c0,0.553,0.448,1,1,1s1-0.447,1-1  c0-2.619,2.024-4.774,4.59-4.983C35.693,8.005,35.863,8,36,8c2.761,0,5,2.239,5,5c0,0.137-0.03,0.266-0.04,0.4  C42.747,14.163,44,15.934,44,18c0,0.629-0.129,1.225-0.341,1.78C42.939,21.658,41.129,23,39,23c-0.552,0-1,0.447-1,1s0.448,1,1,1  c2.67,0,4.997-1.515,6.177-3.718C45.692,22.064,46,22.993,46,24C46,24.915,45.736,25.762,45.307,26.5z M20,10c0-0.553-0.448-1-1-1  s-1,0.447-1,1c0,3.859-4.486,7-10,7c-0.552,0-1,0.447-1,1s0.448,1,1,1C14.617,19,20,14.963,20,10z M27,18c0-0.553-0.448-1-1-1  s-1,0.447-1,1c0,1.654-1.346,3-3,3c-2.757,0-5,2.243-5,5c0,0.553,0.448,1,1,1s1-0.447,1-1c0-1.654,1.346-3,3-3  C24.757,23,27,20.757,27,18z M38,15c0-0.553-0.448-1-1-1c-4.486,0-8,5.71-8,13c0,0.553,0.448,1,1,1s1-0.447,1-1  c0-5.963,2.748-11,6-11C37.552,16,38,15.553,38,15z"/><text x="0" y="63" fill="#000000" font-size="5px" font-weight="bold" font-family="'Helvetica Neue', Helvetica, Arial-Unicode, Arial, Sans-serif">Created by AbtoCreative</text><text x="0" y="68" fill="#000000" font-size="5px" font-weight="bold" font-family="'Helvetica Neue', Helvetica, Arial-Unicode, Arial, Sans-serif">from the Noun Project</text></svg>