<svg xmlns="http://www.w3.org/2000/svg" viewBox="0 0 50 62.5" x="0px" y="0px"><g><path d="M47,26a1,1,0,0,0,0-2H45V9.858A3.99156,3.99156,0,1,0,40.142,5H26V3a1,1,0,0,0-2,0V5H9.858A3.99156,3.99156,0,1,0,5,9.858V24H3a1,1,0,0,0,0,2H5V40.142A3.99156,3.99156,0,1,0,9.858,45H24v2a1,1,0,0,0,2,0V45H40.142A3.99156,3.99156,0,1,0,45,40.142V26ZM40.142,43H9.858A3.99375,3.99375,0,0,0,7,40.142V9.858A3.99375,3.99375,0,0,0,9.858,7H40.142A3.99375,3.99375,0,0,0,43,9.858V40.142A3.99375,3.99375,0,0,0,40.142,43ZM44,4a2,2,0,1,1-2,2A2.00233,2.00233,0,0,1,44,4ZM4,6A2,2,0,1,1,6,8,2.00233,2.00233,0,0,1,4,6ZM6,46a2,2,0,1,1,2-2A2.00233,2.00233,0,0,1,6,46Zm40-2a2,2,0,1,1-2-2A2.00233,2.00233,0,0,1,46,44Z"/><path d="M15.8276,13.7813c-.0238.0014-.0457.0092-.0695.0109a.9757.9757,0,0,1,.0603.2986,3.10692,3.10692,0,0,0,1.5463,2.6787A.9998.9998,0,1,1,16.3628,18.5a5.10427,5.10427,0,0,1-2.5281-4.1647,5.07812,5.07812,0,0,0-2.4504,6.3571,5.08332,5.08332,0,0,0,0,8.6152,5.07812,5.07812,0,0,0,2.4504,6.3571A5.10427,5.10427,0,0,1,16.3628,31.5a.9998.9998,0,1,1,1.0019,1.7305,3.10692,3.10692,0,0,0-1.5463,2.6787.97867.97867,0,0,1-.0603.2986c.0238.0017.0457.0095.0695.011A5.0976,5.0976,0,0,0,20.9092,41,5.01018,5.01018,0,0,0,24,39.9266V10.0734A5.01018,5.01018,0,0,0,20.9092,9,5.09761,5.09761,0,0,0,15.8276,13.7813Z"/><path d="M38.6157,20.6924a5.07812,5.07812,0,0,0-2.4504-6.3571A5.10427,5.10427,0,0,1,33.6372,18.5a.9998.9998,0,0,1-1.0019-1.7305,3.10692,3.10692,0,0,0,1.5463-2.6787.9757.9757,0,0,1,.0603-.2986c-.0238-.0017-.0457-.0095-.0695-.0109A5.09761,5.09761,0,0,0,29.0908,9,5.01018,5.01018,0,0,0,26,10.0734V39.9266A5.01018,5.01018,0,0,0,29.0908,41a5.0976,5.0976,0,0,0,5.0816-4.7812c.0238-.0015.0457-.0093.0695-.011a.97867.97867,0,0,1-.0603-.2986,3.10692,3.10692,0,0,0-1.5463-2.6787A.9998.9998,0,0,1,33.6372,31.5a5.10427,5.10427,0,0,1,2.5281,4.1647,5.07812,5.07812,0,0,0,2.4504-6.3571,5.08332,5.08332,0,0,0,0-8.6152Z"/></g><text x="0" y="65" fill="#000000" font-size="5px" font-weight="bold" font-family="'Helvetica Neue', Helvetica, Arial-Unicode, Arial, Sans-serif">Created by Zulfa Mahendra</text><text x="0" y="70" fill="#000000" font-size="5px" font-weight="bold" font-family="'Helvetica Neue', Helvetica, Arial-Unicode, Arial, Sans-serif">from the Noun Project</text></svg>