<svg xmlns="http://www.w3.org/2000/svg" viewBox="0 0 32 40" x="0px" y="0px"><title>Artboard 38</title><g data-name="Layer 20"><path d="M28.18115,2.65942a1.32259,1.32259,0,0,0-.0332-.15112,1.24613,1.24613,0,0,0-.14136-.20947,1.253,1.253,0,0,0-.13208-.18848l-.00928-.01318A1.24026,1.24026,0,0,0,27.6311,1.946a1.2011,1.2011,0,0,0-.15454-.0996A1.24355,1.24355,0,0,0,27,1.75H22a1.25,1.25,0,0,0,0,2.5h2.0708l-8.749,9.12891L12.31494,11.374a2.26374,2.26374,0,0,0-2.689.14405L4.19971,16.04A1.24979,1.24979,0,1,0,5.80029,17.96L11.083,13.55762l3.02588,2.01758a2.2478,2.2478,0,0,0,2.87353-.31543L25.75,6.11108V8a1.25,1.25,0,0,0,2.5,0V3l-.00244-.01221L28.25,2.97363A1.22746,1.22746,0,0,0,28.18115,2.65942Z"/><rect x="4" y="22" width="6" height="8" rx="1.09546"/><rect x="22" y="14" width="6" height="16" rx="1.09546"/><rect x="13" y="19" width="6" height="11" rx="1.09546"/></g><text x="0" y="47" fill="#000000" font-size="5px" font-weight="bold" font-family="'Helvetica Neue', Helvetica, Arial-Unicode, Arial, Sans-serif">Created by Anggara Putra</text><text x="0" y="52" fill="#000000" font-size="5px" font-weight="bold" font-family="'Helvetica Neue', Helvetica, Arial-Unicode, Arial, Sans-serif">from the Noun Project</text></svg>