<svg xmlns="http://www.w3.org/2000/svg" xmlns:xlink="http://www.w3.org/1999/xlink" xmlns:xodm="http://www.corel.com/coreldraw/odm/2003" xml:space="preserve" version="1.1" style="shape-rendering:geometricPrecision;text-rendering:geometricPrecision;image-rendering:optimizeQuality;" viewBox="0 0 846.66 1058.325" x="0px" y="0px" fill-rule="evenodd" clip-rule="evenodd"><defs><style type="text/css">
   
    .fil0 {fill:black;fill-rule:nonzero}
   
  </style></defs><g><path class="fil0" d="M174.59 173c-3.12,-9.25 -4.51,-18.98 -4.1,-28.66 0.72,-17.11 6.97,-34.11 18.9,-48.08 14.03,-16.42 33.36,-25.73 53.29,-27.45 13.22,-1.02 25.8,0.86 38.01,6.11 4.4,-8.51 9.99,-16.3 16.55,-23.14 11.51,-12.02 26.1,-21.16 42.56,-26.21 16.5,-5.05 33.69,-5.67 49.95,-2.19 11.84,2.53 23.25,7.26 33.58,14.03 10.33,-6.77 21.74,-11.5 33.58,-14.03 16.26,-3.48 33.45,-2.86 49.95,2.19 16.46,5.05 31.05,14.19 42.56,26.21 6.56,6.84 12.15,14.63 16.55,23.14 12.12,-5.21 25.17,-7.21 37.94,-6.11 20,1.72 39.33,11.03 53.36,27.45 11.93,13.97 18.18,30.97 18.9,48.08 0.41,9.68 -0.98,19.41 -4.1,28.66 27.99,5.06 54.48,18.42 75.5,39.44 21.84,21.84 35.42,49.59 40,78.8 4.16,26.5 0.84,54.23 -10.48,79.78 6.78,17.06 9.49,35.18 8.21,52.97 -1.24,17.22 -6.21,34.21 -14.81,49.71 6.15,13.72 9.43,28.45 9.81,43.28 0.45,18.08 -3.42,36.27 -11.67,52.89 -8.27,16.66 -20.43,30.79 -35.11,41.36 -7.88,5.67 -16.49,10.33 -25.61,13.83 2.33,5.36 4,10.95 5,16.66 2.51,14.34 0.74,29.48 -5.66,43.37 -6.38,13.84 -16.75,25.03 -29.3,32.46 -8.26,4.89 -17.48,8.16 -27.15,9.53 -6.26,26.17 -20.46,49.05 -39.79,66.15 -23.41,20.7 -55.85,33.41 -87.26,32.17 -31.7,-0.56 -60.88,-12.69 -82.15,-32.53 -6.99,-6.53 -13.14,-13.88 -18.27,-21.92 -5.12,8.04 -11.27,15.4 -18.27,21.93 -21.25,19.84 -50.45,31.96 -82.15,32.52 -32.63,0.29 -62.74,-10.48 -87.26,-32.17 -19.33,-17.1 -33.53,-39.98 -39.79,-66.15 -9.67,-1.37 -18.89,-4.64 -27.15,-9.53 -12.55,-7.43 -22.92,-18.62 -29.3,-32.46 -6.4,-13.89 -8.17,-29.03 -5.67,-43.37 1.19,-5.96 2.58,-11.05 5.01,-16.66 -9.12,-3.5 -17.73,-8.16 -25.61,-13.83 -14.68,-10.57 -26.84,-24.7 -35.11,-41.36 -8.25,-16.62 -12.12,-34.81 -11.67,-52.89 0.38,-14.83 3.66,-29.56 9.81,-43.28 -8.6,-15.5 -13.57,-32.49 -14.81,-49.71 -1.28,-17.79 1.43,-35.91 8.21,-52.97 -11.32,-25.55 -14.64,-53.28 -10.48,-79.78 4.58,-29.21 18.16,-56.96 40,-78.8 21.02,-21.02 47.51,-34.38 75.5,-39.44zm309.32 197.75c9.02,-2.41 18.3,2.95 20.71,11.97 2.41,9.02 -2.95,18.3 -11.97,20.71 -12.86,3.48 -24.38,10.3 -33.53,19.45 -8.64,8.64 -15.2,19.42 -18.85,31.48l0 203.84c6.84,0 13.65,0.71 20.3,2.08 13.38,2.76 26.12,8.23 37.43,16.2 9.16,6.48 17.11,14.43 23.58,23.46 2.45,0.26 4.88,0.2 7.24,-0.16 4.08,-0.64 8.08,-2.22 11.62,-4.65 3.47,-2.39 6.37,-5.59 8.47,-9.28 2.08,-3.63 3.36,-7.72 3.65,-11.89 0.61,-9.31 8.68,-16.36 17.99,-15.75 9.31,0.61 16.36,8.68 15.75,17.99 -0.66,9.46 -3.46,18.51 -8.01,26.45 -4.52,7.91 -10.88,14.89 -18.67,20.26 -6.88,4.73 -14.58,7.98 -22.59,9.65 1.06,3.98 1.88,8.05 2.45,12.18 1.24,9.24 -5.25,17.75 -14.49,18.99 -9.24,1.24 -17.75,-5.25 -18.99,-14.49 -2.48,-18.15 -12.49,-34.54 -27.44,-45.1 -7.54,-5.31 -16,-8.95 -24.8,-10.78 -4.42,-0.91 -8.95,-1.38 -13.49,-1.38 0,7.43 -0.13,14.92 0,22.35 0.51,21.44 9.8,40.21 24.35,53.8 15.38,14.35 36.57,23.12 59.65,23.53 25.02,-0.71 45.32,-6.85 64.38,-23.71 16.71,-14.78 28.22,-35.54 31.13,-59.25 1.08,-8.84 8.92,-15.41 17.92,-14.82 8.26,0.57 16.28,-1.43 23.05,-5.43 6.76,-4 12.35,-10.04 15.8,-17.52 3.43,-7.46 4.38,-15.63 3.03,-23.39 -1.31,-7.65 -4.85,-14.87 -10.4,-20.66 -2.66,-2.54 -4.51,-5.96 -5.05,-9.88 -1.28,-9.24 5.18,-17.78 14.42,-19.06 12.94,-1.79 25.01,-6.72 35.25,-14.09 10.24,-7.37 18.73,-17.26 24.53,-28.94 5.81,-11.71 8.55,-24.49 8.23,-37.13 -0.1,-4.18 -0.55,-8.36 -1.33,-12.49 -7.99,7.12 -16.84,13.1 -26.31,17.81 -18.38,9.15 -39.16,13.58 -60.41,12.39 -9.31,-0.51 -16.45,-8.49 -15.94,-17.8 0.51,-9.31 8.49,-16.45 17.8,-15.94 15.24,0.85 30.21,-2.35 43.47,-8.95 13,-6.47 24.37,-16.17 32.79,-28.43 8.72,-13.13 13.79,-26.98 14.93,-42.76 1.06,-14.82 -1.65,-29.88 -8.22,-43.62 -2.17,-4.58 -2.28,-10.09 0.2,-14.95 10.79,-21.04 14.18,-44.4 10.69,-66.64 -3.47,-22.14 -13.86,-43.28 -30.6,-60.02 -16.74,-16.74 -37.88,-27.13 -60.02,-30.6 -22.24,-3.49 -45.6,-0.1 -66.64,10.69 -8.29,4.23 -18.46,0.94 -22.69,-7.35 -4.23,-8.29 -0.94,-18.46 7.35,-22.69 17.28,-8.87 35.77,-13.91 54.32,-15.31 4.65,-7.7 6.85,-16.6 6.48,-25.46 -0.41,-9.73 -3.98,-19.44 -10.82,-27.44 -8,-9.37 -19.09,-14.68 -30.55,-15.67 -11.45,-0.97 -23.27,2.36 -32.76,10.21 -1.87,1.51 -4.07,2.67 -6.55,3.31 -9.02,2.33 -18.24,-3.09 -20.57,-12.11 -2.85,-10.96 -8.48,-20.82 -16.1,-28.76 -7.63,-7.96 -17.28,-14.02 -28.14,-17.35 -10.82,-3.31 -22.2,-3.7 -33.01,-1.39 -8.41,1.8 -16.47,5.26 -23.66,10.24l0 116.26c12.34,-10.85 27.19,-18.97 43.64,-23.43 9.02,-2.41 18.3,2.95 20.71,11.97 2.41,9.02 -2.95,18.3 -11.97,20.71 -12.87,3.48 -24.37,10.3 -33.53,19.46 -8.66,8.66 -15.23,19.44 -18.85,31.44l0 151.06c12.34,-10.85 27.21,-18.98 43.64,-23.42zm36.28 165.64c15.6,1.67 30.52,6.63 43.87,14.33 19.2,11.07 35.08,27.79 44.98,48.58 4.02,8.43 0.43,18.54 -8,22.56 -8.43,4.02 -18.54,0.43 -22.56,-8 -6.95,-14.59 -17.97,-26.26 -31.22,-33.9 -9.05,-5.22 -19.21,-8.61 -29.84,-9.85 0.31,9.63 1.57,19.31 3.79,28.88 2.12,9.09 -3.54,18.19 -12.63,20.31 -9.09,2.12 -18.19,-3.54 -20.31,-12.63 -6.82,-29.28 -6.27,-59.57 1.45,-88.52 7.62,-28.42 22.21,-55.08 43.05,-77.36 6.35,-6.79 17.02,-7.14 23.81,-0.79 6.79,6.35 7.14,17.02 0.79,23.81 -16.86,18.03 -28.72,39.78 -34.97,63.08 -0.84,3.14 -1.58,6.32 -2.21,9.5zm116.7 -210.91c1.93,1.32 3.82,2.7 5.67,4.13 12.42,9.65 22.86,21.98 30.43,36.31 7.29,13.81 12.13,30.35 12.84,45.98 0.91,15.58 -1.43,31.4 -7.08,46.35 -3.28,8.73 -13.03,13.14 -21.76,9.86 -8.73,-3.28 -13.14,-13.03 -9.86,-21.76 3.74,-9.91 5.82,-22.19 4.94,-32.77 -0.69,-11.02 -3.71,-21.93 -8.98,-31.92 -5.24,-9.92 -12.56,-18.53 -21.31,-25.33 -7.79,-6.06 -16.68,-10.66 -26.23,-13.45 -17.17,3.34 -34.65,2.5 -51.07,-2.14 -17.78,-5.03 -34.32,-14.56 -47.81,-28.01 -6.61,-6.57 -6.63,-17.27 -0.06,-23.88 6.57,-6.61 17.27,-6.63 23.88,-0.06 9.36,9.33 20.82,15.93 33.11,19.41 12.33,3.49 25.57,3.88 38.48,0.84 11.95,-2.82 25.08,-9.33 33.92,-17.95 9.45,-8.63 16.76,-19.66 20.93,-32.17 2.96,-8.84 12.53,-13.61 21.37,-10.65 8.84,2.96 13.61,12.53 10.65,21.37 -6.04,18.09 -16.57,34.01 -30.19,46.45l-1 0.85c-3.44,3.07 -7.07,5.92 -10.87,8.54zm-282.88 77.95c-9.02,-2.41 -14.38,-11.69 -11.97,-20.71 2.41,-9.02 11.69,-14.38 20.71,-11.97 16.43,4.44 31.3,12.57 43.64,23.42l0 -151.06c-3.62,-12 -10.19,-22.78 -18.85,-31.44 -9.16,-9.16 -20.66,-15.98 -33.53,-19.46 -9.02,-2.41 -14.38,-11.69 -11.97,-20.71 2.41,-9.02 11.69,-14.38 20.71,-11.97 16.45,4.46 31.3,12.58 43.64,23.43l0 -116.26c-7.19,-4.98 -15.25,-8.44 -23.66,-10.24 -10.81,-2.31 -22.19,-1.92 -33.01,1.39 -10.86,3.33 -20.51,9.39 -28.14,17.35 -7.41,7.73 -12.94,17.27 -15.86,27.88 -0.53,2.64 -1.71,5.2 -3.55,7.43 -5.95,7.19 -16.62,8.2 -23.81,2.25 -9.41,-7.79 -21.11,-11.12 -32.47,-10.24 -12.27,1.27 -22.75,6.23 -30.84,15.7 -6.84,8 -10.41,17.71 -10.82,27.44 -0.37,8.86 1.83,17.76 6.48,25.46 18.55,1.4 37.04,6.44 54.32,15.31 8.29,4.23 11.58,14.4 7.35,22.69 -4.23,8.29 -14.4,11.58 -22.69,7.35 -21.04,-10.79 -44.4,-14.18 -66.64,-10.69 -22.14,3.47 -43.28,13.86 -60.02,30.6 -16.74,16.74 -27.13,37.88 -30.6,60.02 -3.49,22.24 -0.1,45.6 10.69,66.64 2.48,4.86 2.37,10.37 0.19,14.95 -6.56,13.74 -9.27,28.8 -8.21,43.62 1.04,14.45 5.69,28.63 13.82,41.09 8.65,13.02 19.88,23.12 33.9,30.1 13.26,6.6 28.23,9.8 43.47,8.95 9.31,-0.51 17.29,6.63 17.8,15.94 0.51,9.31 -6.63,17.29 -15.94,17.8 -21.25,1.19 -42.03,-3.24 -60.41,-12.39 -9.47,-4.71 -18.32,-10.69 -26.31,-17.81 -0.78,4.13 -1.23,8.31 -1.33,12.49 -0.32,12.64 2.42,25.42 8.23,37.13 5.8,11.68 14.29,21.57 24.53,28.94 10.24,7.37 22.31,12.3 35.25,14.09 3.47,0.5 6.83,2.06 9.52,4.7 6.64,6.53 6.73,17.24 0.2,23.88 -5.64,5.73 -9.26,12.92 -10.67,20.49 -1.29,8.57 -0.71,15.95 2.95,23.92 3.45,7.48 9.04,13.52 15.8,17.52 6.59,3.9 14.37,5.89 22.41,5.47 9.15,-0.96 17.44,5.61 18.56,14.78 2.91,23.71 14.42,44.47 31.13,59.25 16.71,14.78 38.71,23.66 62.62,23.66 21.88,0.65 45.44,-8.57 61.41,-23.47 14.56,-13.59 23.84,-32.36 24.35,-53.8 0.13,-7.43 0,-14.92 0,-22.36 -4.54,0 -9.07,0.46 -13.49,1.37 -8.8,1.84 -17.26,5.48 -24.8,10.79 -15.03,10.64 -24.93,26.86 -27.44,45.1 -1.24,9.24 -9.75,15.73 -18.99,14.49 -9.24,-1.24 -15.73,-9.75 -14.49,-18.99 0.57,-4.13 1.39,-8.19 2.45,-12.18 -8.01,-1.67 -15.71,-4.92 -22.59,-9.65 -7.79,-5.37 -14.15,-12.35 -18.67,-20.26 -4.55,-7.94 -7.35,-16.99 -8.01,-26.45 -0.61,-9.31 6.44,-17.38 15.75,-17.99 9.31,-0.61 17.38,6.44 17.99,15.75 0.29,4.17 1.57,8.26 3.65,11.89 2.1,3.69 5,6.89 8.47,9.28 3.54,2.43 7.54,4.01 11.62,4.65 2.35,0.36 4.78,0.42 7.21,0.16 6.49,-9.02 14.44,-16.98 23.61,-23.46 11.31,-7.97 24.05,-13.44 37.36,-16.2 6.69,-1.37 13.52,-2.08 20.37,-2.08l0 -203.84c-3.65,-12.06 -10.21,-22.84 -18.85,-31.48 -9.15,-9.15 -20.67,-15.97 -33.53,-19.45zm-24.77 166.68c-10.63,1.24 -20.79,4.63 -29.84,9.85 -13.25,7.64 -24.27,19.31 -31.22,33.9 -4.02,8.43 -14.13,12.02 -22.56,8 -8.43,-4.02 -12.02,-14.13 -8,-22.56 9.9,-20.79 25.78,-37.51 44.98,-48.58 13.35,-7.7 28.27,-12.66 43.87,-14.33 -0.63,-3.18 -1.37,-6.36 -2.21,-9.5 -6.25,-23.3 -18.11,-45.05 -34.97,-63.08 -6.35,-6.79 -6,-17.46 0.79,-23.81 6.79,-6.35 17.46,-6 23.81,0.79 20.84,22.28 35.43,48.94 43.05,77.36 7.73,28.86 8.25,59.38 1.45,88.52 -2.12,9.09 -11.22,14.75 -20.31,12.63 -9.09,-2.12 -14.75,-11.22 -12.63,-20.31 2.23,-9.57 3.48,-19.25 3.79,-28.88zm-78.13 -227.23c-9.55,2.79 -18.44,7.39 -26.23,13.45 -8.75,6.8 -16.07,15.41 -21.31,25.33 -5.27,9.99 -8.29,20.9 -8.98,31.92 -0.88,10.58 1.2,22.86 4.94,32.77 3.28,8.73 -1.13,18.48 -9.86,21.76 -8.73,3.28 -18.48,-1.13 -21.76,-9.86 -5.65,-14.95 -7.99,-30.77 -7.08,-46.35 0.71,-15.63 5.55,-32.17 12.84,-45.98 7.57,-14.33 18.01,-26.66 30.43,-36.31 1.85,-1.43 3.74,-2.81 5.67,-4.13 -4.29,-2.96 -7.93,-6.04 -11.87,-9.39 -13.62,-12.44 -24.15,-28.36 -30.19,-46.45 -2.96,-8.84 1.81,-18.41 10.65,-21.37 8.84,-2.96 18.41,1.81 21.37,10.65 4.17,12.51 11.48,23.54 20.93,32.17 8.84,8.62 21.97,15.13 33.92,17.95 12.91,3.04 26.15,2.65 38.48,-0.84 12.29,-3.48 23.75,-10.08 33.11,-19.41 6.61,-6.57 17.31,-6.55 23.88,0.06 6.57,6.61 6.55,17.31 -0.06,23.88 -13.49,13.45 -30.03,22.98 -47.81,28.01 -16.42,4.64 -33.9,5.48 -51.07,2.14z"/></g><text x="0" y="861.66" fill="#000000" font-size="5px" font-weight="bold" font-family="'Helvetica Neue', Helvetica, Arial-Unicode, Arial, Sans-serif">Created by Kartika Sholehatin</text><text x="0" y="866.66" fill="#000000" font-size="5px" font-weight="bold" font-family="'Helvetica Neue', Helvetica, Arial-Unicode, Arial, Sans-serif">from the Noun Project</text></svg>